# xmcd
#
# Track frame offsets:
#	150
#	37038
#	71533
#	90827
#	117233
#	143188
#	161461
#	194048
#	216416
#	242709
#
# Disc length: 3563 seconds
#
# Revision: 0
# Processed by: cddbd v1.5.2PL0 Copyright (c) Steve Scherf et al.
# Submitted via: dBpowerAMP V4.0
#
DISCID=8f0de90a
DTITLE=Cemal Kuru - Gel Gel 2
DYEAR=1900
DGENRE=Ethnic
TTITLE0=01 Gel Gel 2
TTITLE1=02 Bir Gün
TTITLE2=03 Allah'ım Allah'ım
TTITLE3=04 Kuru Kafa
TTITLE4=05 Ya Allah
TTITLE5=06 Zikreyle
TTITLE6=07 Annem
TTITLE7=08 Bende Gidem
TTITLE8=09 Yalan Dünya
TTITLE9=10 Sevenler Gelsin
EXTD=Cemal Kuru - Gel Gel 2
EXTT0=
EXTT1=
EXTT2=
EXTT3=
EXTT4=
EXTT5=
EXTT6=
EXTT7=
EXTT8=
EXTT9=
PLAYORDER=
